<svg xmlns="http://www.w3.org/2000/svg" viewBox="0 0 660 400" font-family="-apple-system, BlinkMacSystemFont, 'Segoe UI', Inter, 'Helvetica Neue', Arial, sans-serif" font-size="13" fill="#d8e2ea">
<rect x="0" y="0" width="660" height="400" rx="8" fill="#0c1a28"/>
<text x="330" y="30" text-anchor="middle" font-size="16" font-weight="600" fill="#d8e2ea">There is a best iteration speed, not faster is better</text>
<rect x="70" y="54" width="570" height="296" fill="none" stroke="#6b8194" stroke-width="1"/>
<line x1="70.0" y1="54" x2="70.0" y2="350" stroke="#1e3646" stroke-width="1"/>
<text x="70.0" y="368" text-anchor="middle" fill="#6b8194">1x</text>
<line x1="133.3" y1="54" x2="133.3" y2="350" stroke="#1e3646" stroke-width="1"/>
<text x="133.3" y="368" text-anchor="middle" fill="#6b8194">2x</text>
<line x1="260.0" y1="54" x2="260.0" y2="350" stroke="#1e3646" stroke-width="1"/>
<text x="260.0" y="368" text-anchor="middle" fill="#6b8194">4x</text>
<line x1="386.7" y1="54" x2="386.7" y2="350" stroke="#1e3646" stroke-width="1"/>
<text x="386.7" y="368" text-anchor="middle" fill="#6b8194">6x</text>
<line x1="513.3" y1="54" x2="513.3" y2="350" stroke="#1e3646" stroke-width="1"/>
<text x="513.3" y="368" text-anchor="middle" fill="#6b8194">8x</text>
<line x1="640.0" y1="54" x2="640.0" y2="350" stroke="#1e3646" stroke-width="1"/>
<text x="640.0" y="368" text-anchor="middle" fill="#6b8194">10x</text>
<line x1="70" y1="350.0" x2="640" y2="350.0" stroke="#1e3646" stroke-width="1"/>
<text x="62" y="354.0" text-anchor="end" fill="#6b8194">0x</text>
<line x1="70" y1="263.6" x2="640" y2="263.6" stroke="#1e3646" stroke-width="1"/>
<text x="62" y="267.6" text-anchor="end" fill="#6b8194">2x</text>
<line x1="70" y1="177.1" x2="640" y2="177.1" stroke="#1e3646" stroke-width="1"/>
<text x="62" y="181.1" text-anchor="end" fill="#6b8194">4x</text>
<line x1="70" y1="90.7" x2="640" y2="90.7" stroke="#1e3646" stroke-width="1"/>
<text x="62" y="94.7" text-anchor="end" fill="#6b8194">6x</text>
<text x="355" y="390" text-anchor="middle" fill="#d8e2ea">iterate this many times faster (k)</text>
<text x="16" y="202" text-anchor="middle" fill="#d8e2ea" transform="rotate(-90 16 202)">cumulative gain over fixed horizon</text>
<polyline points="70.0,278.5 76.3,266.8 82.7,253.8 89.0,239.5 95.3,223.8 101.7,206.4 108.0,187.3 114.3,166.2 120.7,142.9 127.0,117.2 133.3,88.9 139.7,57.7 146.0,54.0 152.3,54.0 158.7,54.0 165.0,54.0 171.3,54.0 177.7,54.0 184.0,54.0 190.3,54.0 196.7,54.0 203.0,54.0 209.3,54.0 215.7,54.0 222.0,54.0 228.3,54.0 234.7,54.0 241.0,54.0 247.3,54.0 253.7,54.0 260.0,54.0 266.3,54.0 272.7,54.0 279.0,54.0 285.3,54.0 291.7,54.0 298.0,54.0 304.3,54.0 310.7,54.0 317.0,54.0 323.3,54.0 329.7,54.0 336.0,54.0 342.3,54.0 348.7,54.0 355.0,54.0 361.3,54.0 367.7,54.0 374.0,54.0 380.3,54.0 386.7,54.0 393.0,54.0 399.3,54.0 405.7,54.0 412.0,54.0 418.3,54.0 424.7,54.0 431.0,54.0 437.3,54.0 443.7,54.0 450.0,54.0 456.3,54.0 462.7,54.0 469.0,54.0 475.3,54.0 481.7,54.0 488.0,54.0 494.3,54.0 500.7,54.0 507.0,54.0 513.3,54.0 519.7,54.0 526.0,54.0 532.3,54.0 538.7,54.0 545.0,54.0 551.3,54.0 557.7,54.0 564.0,54.0 570.3,54.0 576.7,54.0 583.0,54.0 589.3,54.0 595.7,54.0 602.0,54.0 608.3,54.0 614.7,54.0 621.0,54.0 627.3,54.0 633.7,54.0 640.0,54.0" fill="none" stroke="#01c6c7" stroke-width="2.4"/>
<polyline points="70.0,278.5 76.3,269.4 82.7,260.1 89.0,250.6 95.3,241.0 101.7,231.3 108.0,221.8 114.3,212.3 120.7,203.1 127.0,194.2 133.3,185.7 139.7,177.7 146.0,170.2 152.3,163.3 158.7,157.2 165.0,151.8 171.3,147.3 177.7,143.7 184.0,141.0 190.3,139.3 196.7,138.6 203.0,138.9 209.3,140.1 215.7,142.4 222.0,145.6 228.3,149.8 234.7,154.8 241.0,160.7 247.3,167.3 253.7,174.6 260.0,182.5 266.3,190.9 272.7,199.8 279.0,209.0 285.3,218.5 291.7,228.2 298.0,237.9 304.3,247.7 310.7,257.4 317.0,266.9 323.3,276.3 329.7,285.4 336.0,294.2 342.3,302.7 348.7,310.8 355.0,318.4 361.3,325.6 367.7,332.4 374.0,338.7 380.3,344.6 386.7,350.0 393.0,355.0 399.3,359.5 405.7,363.6 412.0,367.3 418.3,370.7 424.7,373.7 431.0,376.4 437.3,378.7 443.7,380.8 450.0,382.6 456.3,384.2 462.7,385.6 469.0,386.8 475.3,387.9 481.7,388.7 488.0,389.5 494.3,390.1 500.7,390.7 507.0,391.1 513.3,391.5 519.7,391.8 526.0,392.1 532.3,392.3 538.7,392.5 545.0,392.6 551.3,392.8 557.7,392.9 564.0,392.9 570.3,393.0 576.7,393.0 583.0,393.1 589.3,393.1 595.7,393.1 602.0,393.2 608.3,393.2 614.7,393.2 621.0,393.2 627.3,393.2 633.7,393.2 640.0,393.2" fill="none" stroke="#9945ff" stroke-width="2.4"/>
<circle cx="196.7" cy="138.6" r="3.5" fill="#9945ff"/>
<text x="202.7" y="132.6" fill="#9945ff">best speed ~3.0x</text>
<line x1="84" y1="76" x2="110" y2="76" stroke="#01c6c7" stroke-width="3"/>
<text x="116" y="80" fill="#d8e2ea">rate holds every iteration (optimistic)</text>
<line x1="84" y1="96" x2="110" y2="96" stroke="#9945ff" stroke-width="3"/>
<text x="116" y="100" fill="#d8e2ea">rate decays with speed (less validation)</text>
</svg>